<?xml version="1.0" standalone="no"?>
<!DOCTYPE svg PUBLIC "-//W3C//DTD SVG 20010904//EN"
 "http://www.w3.org/TR/2001/REC-SVG-20010904/DTD/svg10.dtd">
<svg version="1.0" xmlns="http://www.w3.org/2000/svg"
 width="1740.000000pt" height="1740.000000pt" viewBox="0 0 1740.000000 1740.000000"
 preserveAspectRatio="xMidYMid meet">
<metadata>
Created by potrace 1.14, written by Peter Selinger 2001-2017
</metadata>
<g transform="translate(0.000000,1740.000000) scale(0.100000,-0.100000)"
fill="#000000" stroke="none">
<path d="M0 8700 l0 -8700 8700 0 8700 0 0 8700 0 8700 -8700 0 -8700 0 0
-8700z m9055 6040 c1136 -82 2114 -453 2970 -1129 182 -143 322 -270 520 -472
324 -330 584 -668 816 -1057 91 -151 219 -403 212 -414 -2 -5 -2223 -8 -4934
-8 l-4930 0 6 23 c15 49 151 308 237 451 229 381 481 707 803 1035 921 939
2070 1467 3420 1570 159 12 716 13 880 1z m7804 -5089 c72 -37 133 -122 165
-230 45 -152 -18 -320 -143 -383 l-55 -28 -8126 0 -8126 0 -55 28 c-125 63
-188 231 -143 383 32 107 92 192 163 229 35 19 215 19 8159 20 8002 0 8123 0
8161 -19z m-9605 -969 l-52 -47 32 -35 c17 -20 245 -277 506 -571 597 -672
547 -613 528 -617 -9 -2 -378 58 -822 132 -443 75 -812 136 -820 136 -17 0
-56 -154 -82 -325 -34 -226 -19 -552 37 -795 103 -449 368 -880 721 -1172 370
-308 796 -477 1271 -507 630 -40 1233 188 1682 636 281 280 472 615 570 998
53 209 68 352 62 599 -5 217 -16 303 -63 487 -100 398 -341 797 -643 1066
l-72 63 725 0 725 0 34 -57 c119 -198 259 -544 326 -808 68 -267 96 -510 95
-820 -1 -268 -14 -406 -60 -635 -173 -863 -682 -1619 -1419 -2107 -1034 -686
-2367 -734 -3450 -124 -747 420 -1314 1133 -1554 1955 -92 313 -125 555 -125
916 -1 301 11 428 64 681 15 74 26 136 24 138 -7 8 -706 122 -718 118 -14 -5
-55 -202 -80 -377 -58 -404 -44 -919 35 -1320 70 -356 192 -717 349 -1030 193
-385 425 -709 741 -1035 71 -73 129 -135 129 -139 0 -12 -25 -4 -208 68 -548
215 -1128 510 -1657 839 -730 455 -1377 962 -2047 1603 -192 184 -442 441
-446 459 -4 16 436 458 658 662 316 289 638 556 1000 828 102 76 199 149 215
161 l30 23 1905 0 1905 0 -51 -47z m6742 -9 c576 -413 1111 -876 1678 -1451
l158 -161 -20 -28 c-36 -51 -594 -596 -777 -758 -854 -760 -1692 -1333 -2625
-1794 -348 -173 -919 -415 -936 -398 -4 3 51 66 121 139 658 686 1028 1458
1142 2388 13 109 17 219 17 445 0 321 -11 458 -60 725 -51 276 -141 583 -239
815 -26 61 -49 116 -52 123 -4 9 151 12 754 12 l760 0 79 -57z"/>
<path d="M5749 13272 c-54 -35 -279 -267 -410 -423 -169 -200 -369 -479 -429
-598 -38 -75 -18 -152 54 -205 38 -29 124 -29 163 0 15 11 78 95 138 185 182
273 322 444 556 684 165 169 178 190 165 260 -4 19 -18 48 -33 65 -56 67 -130
78 -204 32z"/>
<path d="M11644 13081 c-64 -39 -94 -104 -79 -172 5 -21 38 -65 100 -130 228
-241 383 -498 482 -799 48 -147 72 -183 134 -202 97 -29 199 48 199 149 -1
112 -175 513 -313 720 -128 191 -308 398 -379 434 -47 24 -104 24 -144 0z"/>
<path d="M6372 12892 c-65 -35 -294 -347 -417 -570 -86 -155 -145 -291 -145
-335 0 -102 97 -175 196 -148 53 14 85 51 124 141 73 171 228 420 374 604 47
59 88 121 91 138 28 125 -111 231 -223 170z"/>
<path d="M10794 12692 c-44 -28 -71 -67 -79 -113 -6 -35 0 -55 58 -177 74
-154 117 -271 141 -383 23 -99 45 -135 103 -161 75 -33 140 -12 191 62 29 43
28 92 -2 211 -51 200 -190 511 -248 553 -40 28 -124 33 -164 8z"/>
<path d="M7054 12616 c-50 -22 -180 -203 -249 -348 -42 -87 -45 -140 -12 -188
38 -56 72 -75 133 -74 71 0 99 21 150 117 23 42 68 114 100 161 90 131 107
168 99 216 -17 100 -126 157 -221 116z"/>
</g>
</svg>
